<?xml version="1.0" standalone="no"?>
<!DOCTYPE svg PUBLIC "-//W3C//DTD SVG 20010904//EN"
 "http://www.w3.org/TR/2001/REC-SVG-20010904/DTD/svg10.dtd">
<svg version="1.0" xmlns="http://www.w3.org/2000/svg"
 width="1000.000000pt" height="1000.000000pt" viewBox="0 0 1000.000000 1000.000000"
 preserveAspectRatio="xMidYMid meet">
<metadata>
Created by potrace 1.11, written by Peter Selinger 2001-2013
</metadata>
<g transform="translate(0.000000,1000.000000) scale(0.100000,-0.100000)"
fill="#000000" stroke="none">
<path d="M8950 8316 c-14 -6 -32 -16 -40 -23 -49 -39 -298 -240 -310 -251 -8
-7 -69 -56 -135 -108 -66 -53 -131 -106 -145 -117 -14 -12 -81 -67 -150 -122
-69 -55 -131 -106 -139 -113 -8 -8 -38 -32 -67 -53 -29 -22 -55 -47 -58 -55
-14 -37 40 -100 133 -154 99 -58 211 -132 211 -140 0 -4 -80 -72 -177 -151
-216 -175 -213 -172 -227 -184 -6 -5 -34 -28 -61 -50 -28 -22 -51 -43 -53 -47
-8 -17 -21 -5 -72 70 -50 72 -207 281 -219 292 -3 3 -31 34 -61 70 -386 461
-872 796 -1411 974 -129 42 -368 97 -489 111 -30 4 -66 9 -80 11 -143 23 -710
23 -781 0 -8 -3 -41 -7 -74 -10 -33 -4 -70 -8 -81 -10 -12 -3 -37 -7 -55 -10
-378 -60 -783 -219 -1119 -440 -218 -143 -374 -276 -605 -520 -93 -97 -270
-327 -362 -468 l-50 -77 -99 80 c-55 44 -106 85 -114 92 -8 7 -42 34 -75 60
-33 26 -69 56 -80 65 -11 10 -53 44 -92 76 -40 32 -73 61 -73 65 0 7 214 151
225 151 13 0 75 47 95 72 24 31 31 68 16 83 -15 15 -366 300 -429 348 -27 21
-55 43 -61 48 -6 5 -36 29 -66 52 -143 113 -257 204 -280 224 -91 79 -186 153
-197 154 -7 1 -19 2 -25 3 -40 5 -197 -114 -323 -246 -135 -141 -285 -324
-285 -347 0 -5 -4 -11 -9 -13 -31 -12 -215 -347 -224 -409 -6 -37 10 -60 79
-114 36 -27 73 -57 82 -66 9 -9 67 -56 127 -104 61 -49 121 -99 135 -112 14
-13 28 -23 32 -23 3 0 13 -6 21 -14 7 -8 63 -53 123 -102 60 -48 123 -99 140
-113 17 -14 40 -33 50 -41 10 -8 72 -59 136 -112 87 -72 122 -95 137 -91 27 7
72 87 106 188 15 44 43 110 62 147 31 60 37 66 52 55 16 -11 65 -50 121 -97
10 -8 35 -28 56 -45 32 -26 177 -144 369 -300 26 -22 52 -43 57 -46 5 -3 -9
-62 -31 -130 -100 -313 -130 -465 -147 -749 -13 -202 -7 -545 10 -635 2 -11 7
-47 11 -80 4 -32 8 -66 10 -75 1 -8 6 -35 9 -60 3 -25 9 -58 14 -75 8 -36 8
-174 0 -342 -5 -97 -11 -130 -29 -165 -27 -53 -34 -60 -194 -188 -71 -58 -139
-112 -150 -122 -11 -9 -45 -37 -75 -61 l-54 -45 -57 141 c-84 211 -113 269
-140 273 -14 1 -103 -62 -162 -116 -9 -8 -29 -25 -44 -37 -15 -12 -96 -77
-179 -145 -84 -68 -221 -179 -305 -247 -162 -132 -172 -139 -204 -168 -12 -10
-39 -31 -60 -48 -71 -53 -87 -70 -101 -102 -13 -29 -12 -38 8 -90 29 -80 135
-266 185 -328 5 -5 19 -26 33 -45 93 -135 290 -347 442 -475 135 -114 158
-126 199 -105 19 11 165 125 179 140 3 3 48 39 100 80 52 40 97 76 100 79 3 4
39 33 80 66 41 32 77 61 80 65 3 3 21 17 40 32 19 15 47 37 61 50 15 13 41 34
59 48 66 50 276 221 308 250 17 17 32 37 32 44 0 19 -67 84 -132 128 -123 83
-210 138 -219 138 -22 0 -1 21 109 107 64 50 130 102 146 115 16 13 46 38 65
56 60 55 117 85 174 88 28 1 59 -2 68 -7 10 -5 51 -61 93 -124 42 -64 81 -122
86 -128 6 -7 29 -37 52 -67 24 -30 45 -57 48 -60 3 -3 29 -34 59 -70 118 -140
312 -320 483 -446 400 -296 968 -534 1407 -589 30 -4 63 -9 75 -11 125 -24
649 -23 746 1 8 2 40 7 70 10 166 19 571 125 705 185 11 5 65 28 120 51 499
213 889 522 1242 984 l69 90 57 6 c58 6 132 45 144 74 4 12 9 12 32 -4 14 -11
36 -29 48 -40 12 -12 26 -21 32 -21 5 0 11 -4 13 -9 2 -5 44 -41 93 -81 50
-39 97 -77 107 -85 9 -7 50 -41 92 -76 42 -34 76 -65 76 -68 0 -7 -127 -93
-231 -155 -117 -70 -140 -121 -78 -175 19 -16 81 -67 139 -112 58 -46 107 -86
110 -89 9 -11 203 -164 315 -250 61 -47 115 -89 121 -95 6 -5 28 -23 49 -40
21 -16 43 -35 49 -40 13 -12 129 -109 174 -145 18 -13 40 -28 51 -32 25 -9
118 37 181 89 65 53 259 249 306 308 21 28 41 52 44 55 13 12 100 132 159 218
58 85 167 297 171 332 8 56 6 58 -130 167 -47 37 -87 70 -90 73 -3 3 -25 21
-50 40 -25 19 -47 37 -50 40 -3 3 -63 53 -135 110 -71 57 -218 176 -325 265
-233 192 -251 205 -282 205 -21 0 -68 -52 -75 -84 -14 -69 -42 -147 -79 -224
l-45 -93 -42 33 c-57 45 -377 305 -402 327 -12 9 -45 37 -75 60 -79 63 -82 69
-84 184 -3 193 22 340 94 551 30 86 52 197 65 320 7 69 8 369 0 441 -2 28 -7
77 -10 110 -3 33 -8 71 -10 85 -2 14 -7 45 -10 70 -4 25 -15 88 -26 140 -11
52 -22 106 -25 120 -10 49 -56 206 -81 280 -31 88 -31 116 -1 140 13 10 33 26
45 36 12 11 97 80 189 154 92 74 212 172 268 218 55 45 104 82 107 82 3 0 36
-75 73 -167 85 -211 94 -227 132 -231 22 -2 39 7 70 35 23 21 70 60 105 88 35
27 74 59 85 70 12 11 62 51 110 90 49 38 91 72 94 75 3 3 52 44 110 90 58 46
114 92 125 102 11 9 70 57 130 105 61 48 112 90 115 93 3 3 26 23 52 43 67 55
74 83 42 164 -45 113 -127 248 -247 408 -122 162 -265 310 -447 463 -97 82
-118 93 -150 78z"/>
</g>
</svg>
